<?xml version="1.0" encoding="UTF-8" standalone="no"?>
<svg
   xmlns:dc="http://purl.org/dc/elements/1.1/"
   xmlns:cc="http://creativecommons.org/ns#"
   xmlns:rdf="http://www.w3.org/1999/02/22-rdf-syntax-ns#"
   xmlns:svg="http://www.w3.org/2000/svg"
   xmlns="http://www.w3.org/2000/svg"
   xmlns:sodipodi="http://sodipodi.sourceforge.net/DTD/sodipodi-0.dtd"
   xmlns:inkscape="http://www.inkscape.org/namespaces/inkscape"
   width="15.893mm"
   height="10.826mm"
   viewBox="0 0 15.893 10.826"
   version="1.1"
   id="svg39"
   inkscape:version="1.0.1 (3bc2e813f5, 2020-09-07)"
   sodipodi:docname="KA_logo_white_small.svg">
  <defs
     id="defs33" />
  <sodipodi:namedview
     id="base"
     pagecolor="#ffffff"
     bordercolor="#666666"
     borderopacity="1.0"
     inkscape:pageopacity="0.0"
     inkscape:pageshadow="2"
     inkscape:zoom="0.35"
     inkscape:cx="-218.57143"
     inkscape:cy="560"
     inkscape:document-units="mm"
     inkscape:current-layer="layer1"
     inkscape:document-rotation="0"
     showgrid="false"
     inkscape:window-width="1540"
     inkscape:window-height="1040"
     inkscape:window-x="156"
     inkscape:window-y="0"
     inkscape:window-maximized="0" />
  <metadata
     id="metadata36">
    <rdf:RDF>
      <cc:Work
         rdf:about="">
        <dc:format>image/svg+xml</dc:format>
        <dc:type
           rdf:resource="http://purl.org/dc/dcmitype/StillImage" />
        <dc:title></dc:title>
      </cc:Work>
    </rdf:RDF>
  </metadata>
  <g
     inkscape:label="Calque 1"
     inkscape:groupmode="layer"
     id="layer1">
    <path
       style="fill:#ffffff;stroke-width:0.0164298"
       d="m 3.4392514,11.296492 c -0.02522,-0.0092 -0.063255,-0.04312 -0.084518,-0.07544 -0.033264,-0.05054 -0.039498,-0.08468 -0.044629,-0.244367 -0.00515,-0.160513 -0.00124,-0.19568 0.028875,-0.259987 0.026848,-0.05732 0.049411,-0.08012 0.098424,-0.09946 0.074744,-0.02949 0.1878611,-0.02209 0.2499913,0.01635 0.082073,0.05078 0.1020916,0.112568 0.101466,0.313176 -6.525e-4,0.204747 -0.024013,0.281217 -0.1004193,0.328494 -0.053546,0.03313 -0.185589,0.04438 -0.24919,0.02123 z m 0.1843952,-0.08626 c 0.061763,-0.04085 0.092199,-0.253072 0.056899,-0.396729 -0.033064,-0.134549 -0.1532711,-0.179498 -0.2275833,-0.0851 -0.031359,0.03983 -0.035486,0.06707 -0.035486,0.234214 0,0.178197 0.00237,0.191519 0.040988,0.230338 0.046365,0.0466 0.1106755,0.05333 0.1651822,0.01728 z m 2.4700153,0.08626 c -0.025218,-0.0092 -0.063254,-0.04312 -0.08452,-0.07544 -0.033263,-0.05054 -0.039494,-0.08468 -0.044625,-0.244367 -0.00514,-0.160513 -0.00127,-0.19568 0.028873,-0.259987 0.026849,-0.05732 0.049414,-0.08012 0.098425,-0.09946 0.074744,-0.02949 0.1878615,-0.02209 0.2499915,0.01635 0.082074,0.05078 0.1020912,0.112568 0.1014664,0.313176 -6.635e-4,0.204747 -0.024013,0.281217 -0.1004197,0.328494 -0.053549,0.03313 -0.1855885,0.04438 -0.2491904,0.02123 z m 0.1843958,-0.08626 c 0.061764,-0.04085 0.0922,-0.253072 0.056898,-0.396729 -0.033064,-0.134549 -0.1532703,-0.179498 -0.2275826,-0.0851 -0.031361,0.03983 -0.035486,0.06707 -0.035486,0.234214 0,0.178197 0.00238,0.191519 0.040987,0.230338 0.046362,0.0466 0.1106751,0.05333 0.1651827,0.01728 z m 1.1886641,0.07668 c -0.097187,-0.04732 -0.1265021,-0.124579 -0.1260344,-0.332168 3.185e-4,-0.151358 0.00571,-0.18517 0.038848,-0.24469 0.1001582,-0.179883 0.4253257,-0.136574 0.4253257,0.05665 0,0.0475 -0.0047,0.05233 -0.050718,0.05233 -0.041728,0 -0.050719,-0.0065 -0.050719,-0.0369 0,-0.05253 -0.059712,-0.106791 -0.1175052,-0.106791 -0.1082523,0 -0.1710607,0.162637 -0.1429767,0.370224 0.019556,0.144556 0.073177,0.203717 0.1685908,0.186013 0.04232,-0.0078 0.091216,-0.07692 0.1029985,-0.145484 l 0.010223,-0.0595 H 7.638007 c -0.08126,0 -0.086747,-0.0025 -0.086747,-0.03992 0,-0.03925 0.00227,-0.03991 0.1352558,-0.03991 h 0.135257 v 0.175627 0.175627 H 7.779508 c -0.02806,0 -0.04227,-0.0089 -0.04227,-0.02642 0,-0.02395 -0.0031,-0.02376 -0.03313,0.0019 -0.048745,0.04165 -0.1658091,0.04828 -0.2373851,0.01343 z m -6.86427367,-0.33216 v -0.343271 l 0.13948324,3.2e-5 c 0.15702787,3.2e-5 0.24272453,0.0294 0.27944693,0.09577 0.030515,0.05515 0.017764,0.198402 -0.021291,0.239154 -0.0368726,0.03848 -0.12614905,0.06399 -0.22434218,0.06411 l -0.0718545,6.1e-5 v 0.143695 0.143695 h -0.0507209 -0.0507212 z m 0.2966427,-0.06314 c 0.0515988,-0.04873 0.053503,-0.114331 0.004733,-0.163349 -0.0285767,-0.02873 -0.0549262,-0.03696 -0.11834999,-0.03696 h -0.0815857 v 0.119745 0.119746 h 0.0768509 c 0.0590513,0 0.086461,-0.0091 0.11834933,-0.03919 z m 1.03901637,0.06314 v -0.343271 h 0.050721 0.050721 v 0.143695 0.143695 H 2.1663525 2.293156 v -0.143695 -0.143695 h 0.050721 0.050721 v 0.343271 0.343272 H 2.343877 2.2931559 V 11.138363 10.978702 H 2.1663524 2.0395496 v 0.159661 0.159661 h -0.050721 -0.050721 z m 2.8742038,0.03991 V 10.691309 H 4.719322 c -0.087917,0 -0.092989,-0.0022 -0.092989,-0.03991 v -0.03992 h 0.2366994 0.2366985 v 0.03992 c 0,0.03774 -0.00508,0.03991 -0.092989,0.03991 h -0.092988 v 0.303356 0.303356 h -0.050721 -0.050721 z m 3.9224414,-0.04177 v -0.345128 l 0.1686069,0.0064 c 0.1361753,0.0051 0.1774634,0.01264 0.2146544,0.03886 0.086153,0.06074 0.091548,0.200577 0.010478,0.271531 -0.034137,0.02988 -0.037482,0.03818 -0.015377,0.03818 0.03595,0 0.053489,0.04557 0.067323,0.174929 0.00607,0.05669 0.018583,0.110221 0.027823,0.118947 0.032146,0.03035 0.01641,0.04331 -0.046599,0.03839 l -0.0634,-0.005 -0.018191,-0.122752 c -0.023161,-0.156204 -0.037703,-0.172622 -0.152944,-0.172622 h -0.090919 v 0.151678 0.151679 h -0.050718 -0.050719 z m 0.3051057,-0.06738 c 0.027137,-0.02075 0.037858,-0.0452 0.036708,-0.0837 -0.00227,-0.0751 -0.052786,-0.110511 -0.1577029,-0.110511 h -0.082662 v 0.111763 0.111762 h 0.082662 c 0.055015,0 0.095486,-0.0098 0.1210007,-0.02932 z m 1.0136469,0.399882 c 0,-0.0081 0.03095,-0.114485 0.06877,-0.236512 0.03782,-0.122026 0.08379,-0.270364 0.102158,-0.329637 l 0.03339,-0.107772 0.06268,4.8e-5 0.06268,4.8e-5 0.07125,0.235448 c 0.03919,0.129497 0.0862,0.283946 0.104477,0.34322 l 0.03323,0.107771 h -0.05711 c -0.05537,0 -0.05797,-0.0029 -0.08557,-0.0958 l -0.02846,-0.0958 h -0.10584 -0.105845 l -0.02363,0.0918 c -0.02218,0.08616 -0.02697,0.09211 -0.0779,0.09681 -0.02986,0.0028 -0.05427,-0.0016 -0.05427,-0.0096 z m 0.337852,-0.278759 c -3.82e-4,-0.02682 -0.06277,-0.252472 -0.07227,-0.261449 -0.0062,-0.0059 -0.0796,0.245593 -0.0796,0.272845 0,0.0047 0.03424,0.0086 0.07608,0.0086 0.04975,0 0.07598,-0.0069 0.07579,-0.01996 z m 1.065435,-0.05189 v -0.343271 l 0.139484,3.2e-5 c 0.157028,3.2e-5 0.242724,0.0294 0.279446,0.09577 0.03052,0.05515 0.01777,0.198402 -0.02129,0.239154 -0.03688,0.03848 -0.12615,0.06399 -0.224342,0.06411 l -0.07185,6.1e-5 v 0.143695 0.143695 H 11.50752 11.4568 Z m 0.296643,-0.06314 c 0.0516,-0.04873 0.05351,-0.11433 0.0048,-0.163348 -0.02858,-0.02873 -0.05493,-0.03696 -0.11835,-0.03696 h -0.08159 v 0.119745 0.119746 h 0.07685 c 0.05905,0 0.08646,-0.0091 0.118349,-0.03919 z m 1.02211,0.06314 v -0.343271 h 0.05072 0.05072 v 0.143695 0.143695 h 0.126802 0.126804 v -0.143695 -0.143695 h 0.05072 0.05072 v 0.343271 0.343272 h -0.05072 -0.05072 v -0.159661 -0.159661 h -0.126804 -0.126802 v 0.159661 0.159661 h -0.05072 -0.05072 z m 1.403287,0 v -0.343271 h 0.05072 0.05072 v 0.343271 0.343272 h -0.05072 -0.05072 z m 1.031332,0 v -0.343271 h 0.194432 0.19443 v 0.03992 c 0,0.03944 -0.0017,0.03991 -0.143709,0.03991 h -0.14371 v 0.103779 0.10378 h 0.135256 c 0.133003,0 0.135257,6.79e-4 0.135257,0.03992 0,0.03925 -0.0023,0.03991 -0.135257,0.03991 h -0.135256 v 0.119745 0.119747 h 0.14371 c 0.14202,0 0.143709,4.83e-4 0.143709,0.03991 v 0.03991 h -0.19443 -0.194432 z M 0.65316936,10.213613 c 0,-0.0081 0.73895554,-1.3103102 1.64212334,-2.8938573 C 3.1984605,5.7362088 4.0479164,4.2465909 4.1829713,4.0094942 4.3180289,3.7723976 4.4286533,3.5709308 4.4288072,3.5617898 4.4289983,3.5526492 3.8903588,2.9024294 3.2319164,2.1168572 2.5734732,1.3312845 1.997133,0.64363857 1.9511576,0.58875508 l -0.08359,-0.0997882 0.7073266,2.1725e-4 0.7073259,2.1725e-4 0.212313,0.25923091 C 3.6113042,0.89120936 4.4063595,1.8621772 5.2613218,2.9063385 L 6.8157996,4.8048141 6.8201096,2.6470604 6.8244196,0.489307 8.3248619,0.485144 C 9.1501048,0.482855 10.415313,0.482821 11.136435,0.48506555 l 1.311129,0.004088 0.0644,0.21145452 c 0.03542,0.11629989 0.119925,0.38748083 0.187787,0.60262403 0.06786,0.2151434 0.261614,0.8330318 0.430562,1.3730857 0.168949,0.5400536 0.378268,1.2082352 0.465154,1.4848482 0.231627,0.7374135 0.481218,1.5333869 0.760981,2.426849 0.136108,0.4346773 0.337684,1.0777119 0.447946,1.428967 0.110262,0.3512539 0.289141,0.9224416 0.397508,1.2693055 0.108367,0.346864 0.218329,0.6967809 0.244359,0.7775945 0.02603,0.08081 0.04317,0.150864 0.03807,0.155669 -0.0051,0.0048 -0.269186,0.0087 -0.586882,0.0087 H 14.319833 L 14.187302,9.8011955 C 14.114413,9.5662943 13.966516,9.0903046 13.858644,8.7434412 l -0.196131,-0.6306615 -1.549706,-0.00407 c -1.465095,-0.00385 -1.550202,-0.00255 -1.558791,0.023946 -0.01777,0.054787 -0.601904,2.0818173 -0.601904,2.0886663 0,0.0038 -0.7037573,0.007 -1.5639054,0.007 H 6.8242536 V 8.322571 6.4168492 L 6.6105076,6.1907082 C 6.4929472,6.0663305 6.394545,5.9666599 6.3918358,5.9692175 6.3891265,5.9717626 6.0205942,6.6203738 5.5728733,7.4105461 5.1251532,8.2007191 4.5826355,9.1579646 4.3672816,9.5377581 L 3.9757271,10.228293 H 2.3144495 c -0.9993423,0 -1.66127949,-0.0058 -1.66128014,-0.01468 z M 13.353579,7.1225305 c 0.0048,-0.00458 -0.03109,-0.1393011 -0.07989,-0.2993651 C 13.006194,5.9457681 12.701698,4.9473826 12.547026,4.4405792 12.450545,4.1244502 12.302795,3.64015 12.218694,3.3643557 c -0.0841,-0.2757936 -0.15634,-0.5046822 -0.160532,-0.5086401 -0.0099,-0.00937 -0.01106,-0.00545 -0.339258,1.1617616 -0.154323,0.5488349 -0.325561,1.1559462 -0.38053,1.3491363 -0.211425,0.7430492 -0.490236,1.7391222 -0.490236,1.7514031 0,0.013868 2.490787,0.018353 2.505441,0.00452 z m 2.66526,3.0734045 c -0.0943,-0.04704 -0.138583,-0.116933 -0.145975,-0.230402 -0.0053,-0.081069 6.3e-5,-0.1053399 0.03364,-0.1519774 0.111308,-0.1547357 0.339883,-0.1868045 0.488689,-0.068562 0.149593,0.118869 0.128264,0.3490064 -0.04103,0.4426974 -0.09297,0.05145 -0.241396,0.0551 -0.335324,0.0082 z m 0.290457,-0.05146 c 0.08901,-0.05721 0.126851,-0.116524 0.125029,-0.1959995 -0.0033,-0.1426578 -0.167876,-0.2575593 -0.310973,-0.2170725 -0.132001,0.037345 -0.224262,0.1596053 -0.197223,0.2613447 0.04053,0.1524973 0.251803,0.2361573 0.383167,0.1517273 z m -0.238171,-0.07461 c -0.04129,-0.03899 -0.04942,-0.05965 -0.04942,-0.1255761 0,-0.055285 0.01035,-0.09132 0.03455,-0.1203797 0.06576,-0.078942 0.222223,-0.070696 0.270365,0.014247 0.0244,0.043057 0.01009,0.070243 -0.02438,0.046304 -0.102696,-0.071317 -0.106568,-0.072702 -0.150504,-0.053798 -0.08524,0.036678 -0.09885,0.1641498 -0.02289,0.2143958 0.05344,0.03535 0.108152,0.02895 0.139572,-0.01634 0.01523,-0.02196 0.03823,-0.039912 0.05112,-0.039912 0.03676,0 0.02746,0.045528 -0.01809,0.088539 -0.06139,0.05797 -0.16455,0.05462 -0.230315,-0.0075 z"
       id="path22" />
  </g>
</svg>
